<mxfile host="app.diagrams.net" agent="Mozilla/5.0 (Windows NT 10.0; Win64; x64) AppleWebKit/537.36 (KHTML, like Gecko) Chrome/127.0.0.0 Safari/537.36 Edg/127.0.0.0" version="24.7.7">
  <diagram name="第 1 页" id="gpIHLKLEVWWJSvzPu31k">
    <mxGraphModel dx="2584" dy="1073" grid="1" gridSize="10" guides="1" tooltips="1" connect="1" arrows="1" fold="1" page="1" pageScale="1" pageWidth="827" pageHeight="1169" math="0" shadow="0">
      <root>
        <mxCell id="0" />
        <mxCell id="1" parent="0" />
        <mxCell id="3K_oNV2d-IeETJ5J5liT-1" value="瑞思云业务架构" style="whiteSpace=wrap;html=1;fontSize=36;verticalAlign=top;dashed=1;dashPattern=1 4;fontStyle=1" parent="1" vertex="1">
          <mxGeometry x="-100" y="210" width="1930" height="1320" as="geometry" />
        </mxCell>
        <UserObject label="接入渠道" link="https://baidu.com" id="7oQJ4bdG35kOt4FpmPfC-34">
          <mxCell style="swimlane;fontSize=20;align=center;swimlaneFillColor=#f4f4f4;fillColor=#dae8fc;collapsible=0;startSize=50;strokeColor=#6c8ebf;fontStyle=1;container=0;" parent="1" vertex="1">
            <mxGeometry x="-140" y="561" width="280" height="749" as="geometry" />
          </mxCell>
        </UserObject>
        <mxCell id="7oQJ4bdG35kOt4FpmPfC-38" value="&lt;span style=&quot;color: rgb(35 , 47 , 62)&quot;&gt;管理后台&lt;/span&gt;" style="verticalAlign=top;verticalLabelPosition=bottom;labelPosition=center;align=center;html=1;outlineConnect=0;fillColor=#FAE5C7;strokeColor=#006666;gradientDirection=north;strokeWidth=2;shape=mxgraph.networks.pc;fontColor=#143642;" parent="7oQJ4bdG35kOt4FpmPfC-34" vertex="1">
          <mxGeometry x="82" y="589" width="100" height="70" as="geometry" />
        </mxCell>
        <mxCell id="7oQJ4bdG35kOt4FpmPfC-37" value="&lt;span style=&quot;color: rgb(35 , 47 , 62)&quot;&gt;PC官方网站&lt;/span&gt;" style="verticalAlign=top;verticalLabelPosition=bottom;labelPosition=center;align=center;html=1;outlineConnect=0;fillColor=#FAE5C7;strokeColor=#006666;gradientDirection=north;strokeWidth=2;shape=mxgraph.networks.monitor;fontColor=#143642;" parent="7oQJ4bdG35kOt4FpmPfC-34" vertex="1">
          <mxGeometry x="92" y="446" width="80" height="65" as="geometry" />
        </mxCell>
        <mxCell id="7oQJ4bdG35kOt4FpmPfC-36" value="开放接口" style="outlineConnect=0;fillColor=#006666;strokeColor=#666666;dashed=0;verticalLabelPosition=bottom;verticalAlign=top;align=center;html=1;fontSize=12;fontStyle=0;aspect=fixed;pointerEvents=1;shape=mxgraph.aws4.external_sdk;labelBackgroundColor=none;gradientColor=#b3b3b3;" parent="7oQJ4bdG35kOt4FpmPfC-34" vertex="1">
          <mxGeometry x="92" y="289" width="68" height="78" as="geometry" />
        </mxCell>
        <mxCell id="7oQJ4bdG35kOt4FpmPfC-35" value="微信-App" style="outlineConnect=0;strokeColor=#006666;fillColor=#006666;dashed=0;verticalLabelPosition=bottom;verticalAlign=top;align=center;fontSize=12;fontStyle=0;shape=mxgraph.aws4.mobile_client;labelBackgroundColor=none;html=1;gradientColor=#b3b3b3;" parent="7oQJ4bdG35kOt4FpmPfC-34" vertex="1">
          <mxGeometry x="99.5" y="119" width="53" height="100" as="geometry" />
        </mxCell>
        <UserObject label="基础数据库" id="3K_oNV2d-IeETJ5J5liT-101">
          <mxCell style="whiteSpace=wrap;html=1;fontStyle=1;verticalAlign=top;movable=1;resizable=1;rotatable=1;deletable=1;editable=1;locked=0;connectable=1;container=0;" parent="1" vertex="1">
            <mxGeometry x="-440" y="1560" width="300" height="175" as="geometry" />
          </mxCell>
        </UserObject>
        <UserObject label="药品库" id="3K_oNV2d-IeETJ5J5liT-102">
          <mxCell style="whiteSpace=wrap;html=1;movable=1;resizable=1;rotatable=1;deletable=1;editable=1;locked=0;connectable=1;container=0;" parent="1" vertex="1">
            <mxGeometry x="-420" y="1640" width="80" height="30" as="geometry" />
          </mxCell>
        </UserObject>
        <UserObject label="频次" id="3K_oNV2d-IeETJ5J5liT-103">
          <mxCell style="whiteSpace=wrap;html=1;movable=1;resizable=1;rotatable=1;deletable=1;editable=1;locked=0;connectable=1;container=0;" parent="1" vertex="1">
            <mxGeometry x="-330" y="1640" width="80" height="30" as="geometry" />
          </mxCell>
        </UserObject>
        <UserObject label="用法/检验值" id="3K_oNV2d-IeETJ5J5liT-104">
          <mxCell style="whiteSpace=wrap;html=1;movable=1;resizable=1;rotatable=1;deletable=1;editable=1;locked=0;connectable=1;container=0;" parent="1" vertex="1">
            <mxGeometry x="-240" y="1640" width="80" height="30" as="geometry" />
          </mxCell>
        </UserObject>
        <UserObject label="检验项目" id="3K_oNV2d-IeETJ5J5liT-105">
          <mxCell style="whiteSpace=wrap;html=1;movable=1;resizable=1;rotatable=1;deletable=1;editable=1;locked=0;connectable=1;container=0;" parent="1" vertex="1">
            <mxGeometry x="-420" y="1686" width="80" height="30" as="geometry" />
          </mxCell>
        </UserObject>
        <UserObject label="手术" id="3K_oNV2d-IeETJ5J5liT-106">
          <mxCell style="whiteSpace=wrap;html=1;movable=1;resizable=1;rotatable=1;deletable=1;editable=1;locked=0;connectable=1;container=0;" parent="1" vertex="1">
            <mxGeometry x="-330" y="1686" width="80" height="30" as="geometry" />
          </mxCell>
        </UserObject>
        <UserObject label="药房" id="3K_oNV2d-IeETJ5J5liT-107">
          <mxCell style="whiteSpace=wrap;html=1;movable=1;resizable=1;rotatable=1;deletable=1;editable=1;locked=0;connectable=1;container=0;" parent="1" vertex="1">
            <mxGeometry x="-240" y="1686" width="80" height="30" as="geometry" />
          </mxCell>
        </UserObject>
        <UserObject label="患者库" id="3K_oNV2d-IeETJ5J5liT-108">
          <mxCell style="whiteSpace=wrap;html=1;movable=1;resizable=1;rotatable=1;deletable=1;editable=1;locked=0;connectable=1;container=0;" parent="1" vertex="1">
            <mxGeometry x="-420" y="1595" width="80" height="30" as="geometry" />
          </mxCell>
        </UserObject>
        <UserObject label="疾病库" id="3K_oNV2d-IeETJ5J5liT-109">
          <mxCell style="whiteSpace=wrap;html=1;movable=1;resizable=1;rotatable=1;deletable=1;editable=1;locked=0;connectable=1;container=0;" parent="1" vertex="1">
            <mxGeometry x="-330" y="1595" width="80" height="30" as="geometry" />
          </mxCell>
        </UserObject>
        <UserObject label="特殊人群" id="3K_oNV2d-IeETJ5J5liT-110">
          <mxCell style="whiteSpace=wrap;html=1;movable=1;resizable=1;rotatable=1;deletable=1;editable=1;locked=0;connectable=1;container=0;" parent="1" vertex="1">
            <mxGeometry x="-240" y="1595" width="80" height="30" as="geometry" />
          </mxCell>
        </UserObject>
        <mxCell id="7oQJ4bdG35kOt4FpmPfC-3" value="" style="group" parent="1" vertex="1" connectable="0">
          <mxGeometry x="-140" y="1360" width="1850" height="160" as="geometry" />
        </mxCell>
        <mxCell id="3K_oNV2d-IeETJ5J5liT-62" value="&lt;b style=&quot;border-color: var(--border-color); text-align: left;&quot;&gt;&lt;font style=&quot;font-size: 20px;&quot;&gt;基础设施&lt;/font&gt;&lt;/b&gt;" style="shape=umlFrame;whiteSpace=wrap;html=1;pointerEvents=0;swimlaneFillColor=#E6E6E6;width=100;height=40;" parent="7oQJ4bdG35kOt4FpmPfC-3" vertex="1">
          <mxGeometry y="-20" width="1850.0000000000002" height="160" as="geometry" />
        </mxCell>
        <mxCell id="3K_oNV2d-IeETJ5J5liT-63" value="&lt;b style=&quot;border-color: var(--border-color); font-size: 16px;&quot;&gt;Nginx&lt;/b&gt;" style="whiteSpace=wrap;html=1;fontSize=16;" parent="7oQJ4bdG35kOt4FpmPfC-3" vertex="1">
          <mxGeometry x="117.25352112676056" y="50" width="156.33802816901408" height="60" as="geometry" />
        </mxCell>
        <mxCell id="3K_oNV2d-IeETJ5J5liT-64" value="MySql" style="whiteSpace=wrap;html=1;fontStyle=1;fontSize=16;" parent="7oQJ4bdG35kOt4FpmPfC-3" vertex="1">
          <mxGeometry x="368.69718309859155" y="50" width="156.33802816901408" height="60" as="geometry" />
        </mxCell>
        <mxCell id="3K_oNV2d-IeETJ5J5liT-65" value="&lt;b style=&quot;border-color: var(--border-color); font-size: 16px;&quot;&gt;Redis&lt;/b&gt;" style="whiteSpace=wrap;html=1;fontSize=16;" parent="7oQJ4bdG35kOt4FpmPfC-3" vertex="1">
          <mxGeometry x="621.4436619718309" y="50" width="156.33802816901408" height="60" as="geometry" />
        </mxCell>
        <mxCell id="3K_oNV2d-IeETJ5J5liT-66" value="ES" style="whiteSpace=wrap;html=1;fontStyle=1;fontSize=16;" parent="7oQJ4bdG35kOt4FpmPfC-3" vertex="1">
          <mxGeometry x="872.887323943662" y="50" width="156.33802816901408" height="60" as="geometry" />
        </mxCell>
        <mxCell id="3K_oNV2d-IeETJ5J5liT-67" value="&lt;b style=&quot;border-color: var(--border-color); font-size: 16px;&quot;&gt;Zhub&lt;/b&gt;" style="whiteSpace=wrap;html=1;fontSize=16;" parent="7oQJ4bdG35kOt4FpmPfC-3" vertex="1">
          <mxGeometry x="1124.3309859154929" y="50" width="156.33802816901408" height="60" as="geometry" />
        </mxCell>
        <mxCell id="3K_oNV2d-IeETJ5J5liT-68" value="MongoDB" style="whiteSpace=wrap;html=1;fontStyle=1;fontSize=16;" parent="7oQJ4bdG35kOt4FpmPfC-3" vertex="1">
          <mxGeometry x="1377.0774647887324" y="50" width="156.33802816901408" height="60" as="geometry" />
        </mxCell>
        <mxCell id="3K_oNV2d-IeETJ5J5liT-69" value="Kettle" style="whiteSpace=wrap;html=1;fontStyle=1;fontSize=16;" parent="7oQJ4bdG35kOt4FpmPfC-3" vertex="1">
          <mxGeometry x="1628.5211267605634" y="50" width="156.33802816901408" height="60" as="geometry" />
        </mxCell>
        <mxCell id="7oQJ4bdG35kOt4FpmPfC-23" value="" style="group" parent="1" vertex="1" connectable="0">
          <mxGeometry x="170" y="270" width="1540" height="160" as="geometry" />
        </mxCell>
        <mxCell id="7oQJ4bdG35kOt4FpmPfC-24" value="&lt;div style=&quot;text-align: left;&quot;&gt;&lt;b style=&quot;&quot;&gt;&lt;font style=&quot;font-size: 20px;&quot;&gt;系统|应用&lt;/font&gt;&lt;/b&gt;&lt;/div&gt;" style="shape=umlFrame;whiteSpace=wrap;html=1;pointerEvents=0;swimlaneFillColor=#E6E6E6;width=100;height=40;" parent="7oQJ4bdG35kOt4FpmPfC-23" vertex="1">
          <mxGeometry width="1540" height="160" as="geometry" />
        </mxCell>
        <mxCell id="7oQJ4bdG35kOt4FpmPfC-25" value="&lt;span style=&quot;font-size: 18px;&quot;&gt;药学平台&lt;/span&gt;" style="whiteSpace=wrap;html=1;fontSize=18;fontStyle=1" parent="7oQJ4bdG35kOt4FpmPfC-23" vertex="1">
          <mxGeometry x="97.6056338028169" y="50" width="130.14084507042256" height="60" as="geometry" />
        </mxCell>
        <mxCell id="7oQJ4bdG35kOt4FpmPfC-26" value="&lt;span style=&quot;font-size: 18px;&quot;&gt;质控平台&lt;/span&gt;" style="whiteSpace=wrap;html=1;fontStyle=1;fontSize=18;" parent="7oQJ4bdG35kOt4FpmPfC-23" vertex="1">
          <mxGeometry x="306.91549295774644" y="50" width="130.14084507042256" height="60" as="geometry" />
        </mxCell>
        <mxCell id="7oQJ4bdG35kOt4FpmPfC-27" value="&lt;span style=&quot;font-size: 18px;&quot;&gt;远程问诊&lt;/span&gt;" style="whiteSpace=wrap;html=1;fontSize=18;fontStyle=1" parent="7oQJ4bdG35kOt4FpmPfC-23" vertex="1">
          <mxGeometry x="517.3098591549297" y="50" width="130.14084507042256" height="60" as="geometry" />
        </mxCell>
        <mxCell id="7oQJ4bdG35kOt4FpmPfC-28" value="&lt;span style=&quot;font-size: 18px;&quot;&gt;临床评价&lt;/span&gt;" style="whiteSpace=wrap;html=1;fontStyle=1;fontSize=18;" parent="7oQJ4bdG35kOt4FpmPfC-23" vertex="1">
          <mxGeometry x="726.6197183098591" y="50" width="130.14084507042256" height="60" as="geometry" />
        </mxCell>
        <mxCell id="7oQJ4bdG35kOt4FpmPfC-29" value="&lt;span style=&quot;font-size: 18px;&quot;&gt;临床评价&lt;/span&gt;" style="whiteSpace=wrap;html=1;fontSize=18;fontStyle=1" parent="7oQJ4bdG35kOt4FpmPfC-23" vertex="1">
          <mxGeometry x="935.9295774647886" y="50" width="130.14084507042256" height="60" as="geometry" />
        </mxCell>
        <mxCell id="7oQJ4bdG35kOt4FpmPfC-30" value="xxx" style="whiteSpace=wrap;html=1;fontStyle=1;fontSize=16;" parent="7oQJ4bdG35kOt4FpmPfC-23" vertex="1">
          <mxGeometry x="1146.323943661972" y="50" width="130.14084507042256" height="60" as="geometry" />
        </mxCell>
        <mxCell id="7oQJ4bdG35kOt4FpmPfC-31" value="Kettle" style="whiteSpace=wrap;html=1;fontStyle=1;fontSize=16;" parent="7oQJ4bdG35kOt4FpmPfC-23" vertex="1">
          <mxGeometry x="1355.6338028169014" y="50" width="130.14084507042256" height="60" as="geometry" />
        </mxCell>
        <mxCell id="7oQJ4bdG35kOt4FpmPfC-44" value="" style="group" parent="1" vertex="1" connectable="0">
          <mxGeometry x="-140" y="270" width="280" height="291" as="geometry" />
        </mxCell>
        <UserObject label="平台用户" link="https://baidu.com" id="7oQJ4bdG35kOt4FpmPfC-39">
          <mxCell style="swimlane;fontSize=20;align=center;swimlaneFillColor=#f4f4f4;fillColor=#dae8fc;collapsible=0;startSize=50;strokeColor=#6c8ebf;fontStyle=1" parent="7oQJ4bdG35kOt4FpmPfC-44" vertex="1">
            <mxGeometry width="280" height="291" as="geometry" />
          </mxCell>
        </UserObject>
        <mxCell id="7oQJ4bdG35kOt4FpmPfC-5" value="医院: 医生|药师" style="whiteSpace=wrap;html=1;fontStyle=1;fontSize=16;strokeColor=#7EA6E0;" parent="7oQJ4bdG35kOt4FpmPfC-44" vertex="1">
          <mxGeometry y="111" width="280" height="60" as="geometry" />
        </mxCell>
        <mxCell id="7oQJ4bdG35kOt4FpmPfC-6" value="药店人员" style="whiteSpace=wrap;html=1;fontStyle=1;fontSize=16;strokeColor=#7EA6E0;" parent="7oQJ4bdG35kOt4FpmPfC-44" vertex="1">
          <mxGeometry y="171" width="280" height="60" as="geometry" />
        </mxCell>
        <mxCell id="7oQJ4bdG35kOt4FpmPfC-7" value="患者" style="whiteSpace=wrap;html=1;fontStyle=1;fontSize=16;strokeColor=#7EA6E0;" parent="7oQJ4bdG35kOt4FpmPfC-44" vertex="1">
          <mxGeometry y="231" width="280" height="60" as="geometry" />
        </mxCell>
        <mxCell id="7oQJ4bdG35kOt4FpmPfC-8" value="xxx" style="whiteSpace=wrap;html=1;fontStyle=1;fontSize=16;strokeColor=#7EA6E0;" parent="7oQJ4bdG35kOt4FpmPfC-44" vertex="1">
          <mxGeometry y="51" width="280" height="60" as="geometry" />
        </mxCell>
        <mxCell id="SIpfl7NKByW21zQpW2tj-7" value="" style="group" parent="1" vertex="1" connectable="0">
          <mxGeometry x="3060" y="360" width="160" height="890" as="geometry" />
        </mxCell>
        <mxCell id="3K_oNV2d-IeETJ5J5liT-45" value="" style="group;fillColor=#e1d5e7;strokeColor=#9673a6;fontStyle=0;container=0;" parent="SIpfl7NKByW21zQpW2tj-7" vertex="1" connectable="0">
          <mxGeometry width="120" height="830" as="geometry" />
        </mxCell>
        <mxCell id="3K_oNV2d-IeETJ5J5liT-70" value="&lt;font style=&quot;font-size: 20px;&quot;&gt;公共服务&lt;/font&gt;" style="whiteSpace=wrap;html=1;dashed=1;verticalAlign=top;align=center;fillColor=#e1d5e7;strokeColor=#9673a6;fontSize=18;fontStyle=1" parent="SIpfl7NKByW21zQpW2tj-7" vertex="1">
          <mxGeometry width="160" height="890" as="geometry" />
        </mxCell>
        <mxCell id="3K_oNV2d-IeETJ5J5liT-71" value="rws&lt;br style=&quot;font-size: 16px;&quot;&gt;消息通讯" style="whiteSpace=wrap;html=1;fontStyle=1;fontSize=16;" parent="SIpfl7NKByW21zQpW2tj-7" vertex="1">
          <mxGeometry x="8" y="75" width="144" height="60" as="geometry" />
        </mxCell>
        <mxCell id="3K_oNV2d-IeETJ5J5liT-72" value="rlog&lt;br style=&quot;font-size: 16px;&quot;&gt;日志服务" style="whiteSpace=wrap;html=1;fontStyle=1;fontSize=16;" parent="SIpfl7NKByW21zQpW2tj-7" vertex="1">
          <mxGeometry x="8" y="163" width="144" height="60" as="geometry" />
        </mxCell>
        <mxCell id="3K_oNV2d-IeETJ5J5liT-73" value="rfile&lt;br style=&quot;font-size: 16px;&quot;&gt;文件服务" style="whiteSpace=wrap;html=1;fontStyle=1;fontSize=16;" parent="SIpfl7NKByW21zQpW2tj-7" vertex="1">
          <mxGeometry x="8" y="252" width="144" height="60" as="geometry" />
        </mxCell>
        <mxCell id="3K_oNV2d-IeETJ5J5liT-74" value="rauth&lt;br style=&quot;font-size: 16px;&quot;&gt;安全中心" style="whiteSpace=wrap;html=1;fontStyle=1;fontSize=16;" parent="SIpfl7NKByW21zQpW2tj-7" vertex="1">
          <mxGeometry x="8" y="340" width="144" height="60" as="geometry" />
        </mxCell>
        <mxCell id="SIpfl7NKByW21zQpW2tj-8" value="" style="group" parent="1" vertex="1" connectable="0">
          <mxGeometry x="1450" y="440" width="260" height="870" as="geometry" />
        </mxCell>
        <UserObject label="安全+监控+运维" link="https://baidu.com" id="7oQJ4bdG35kOt4FpmPfC-45">
          <mxCell style="swimlane;fontSize=20;align=center;swimlaneFillColor=#f4f4f4;fillColor=#dae8fc;collapsible=0;startSize=50;strokeColor=#6c8ebf;fontStyle=1;container=0;" parent="SIpfl7NKByW21zQpW2tj-8" vertex="1">
            <mxGeometry width="260" height="870" as="geometry" />
          </mxCell>
        </UserObject>
        <mxCell id="SIpfl7NKByW21zQpW2tj-1" value="&lt;font style=&quot;font-size: 16px;&quot;&gt;&lt;span style=&quot;color: rgb(20, 54, 66); font-size: 16px;&quot;&gt;&lt;span style=&quot;font-size: 16px;&quot;&gt;监控&lt;/span&gt;&lt;/span&gt;&lt;br style=&quot;color: rgb(20, 54, 66); font-size: 16px;&quot;&gt;&lt;span style=&quot;color: rgb(20, 54, 66); font-size: 16px;&quot;&gt;设备|应用|组件&lt;/span&gt;&lt;/font&gt;" style="whiteSpace=wrap;html=1;fontSize=16;fontStyle=1" parent="SIpfl7NKByW21zQpW2tj-8" vertex="1">
          <mxGeometry x="40" y="270" width="180" height="60" as="geometry" />
        </mxCell>
        <mxCell id="SIpfl7NKByW21zQpW2tj-4" value="&lt;font color=&quot;#143642&quot; style=&quot;font-size: 16px;&quot;&gt;&lt;span style=&quot;font-size: 16px;&quot;&gt;&lt;span style=&quot;font-size: 16px;&quot;&gt;风险检测&lt;br style=&quot;font-size: 16px;&quot;&gt;&lt;/span&gt;&lt;/span&gt;&lt;/font&gt;" style="whiteSpace=wrap;html=1;fontSize=16;fontStyle=1" parent="SIpfl7NKByW21zQpW2tj-8" vertex="1">
          <mxGeometry x="40" y="70" width="180" height="60" as="geometry" />
        </mxCell>
        <mxCell id="SIpfl7NKByW21zQpW2tj-5" value="&lt;span style=&quot;color: rgb(20, 54, 66); font-size: 16px;&quot;&gt;&lt;font style=&quot;font-size: 16px;&quot;&gt;&lt;span style=&quot;font-size: 16px;&quot;&gt;访问拦截&lt;/span&gt;&lt;br style=&quot;font-size: 16px;&quot;&gt;&lt;/font&gt;&lt;/span&gt;" style="whiteSpace=wrap;html=1;fontSize=16;fontStyle=1" parent="SIpfl7NKByW21zQpW2tj-8" vertex="1">
          <mxGeometry x="40" y="170" width="180" height="60" as="geometry" />
        </mxCell>
        <mxCell id="3K_oNV2d-IeETJ5J5liT-84" value="GitLab" style="whiteSpace=wrap;html=1;fontStyle=1;fontSize=16;" parent="SIpfl7NKByW21zQpW2tj-8" vertex="1">
          <mxGeometry x="40" y="370" width="180" height="60" as="geometry" />
        </mxCell>
        <mxCell id="3K_oNV2d-IeETJ5J5liT-85" value="Docker" style="whiteSpace=wrap;html=1;fontStyle=1;fontSize=16;" parent="SIpfl7NKByW21zQpW2tj-8" vertex="1">
          <mxGeometry x="40" y="470" width="180" height="60" as="geometry" />
        </mxCell>
        <mxCell id="3K_oNV2d-IeETJ5J5liT-86" value="Jenkins" style="whiteSpace=wrap;html=1;fontStyle=1;fontSize=16;" parent="SIpfl7NKByW21zQpW2tj-8" vertex="1">
          <mxGeometry x="40" y="570" width="180" height="60" as="geometry" />
        </mxCell>
        <mxCell id="7oQJ4bdG35kOt4FpmPfC-52" value="数据备份" style="whiteSpace=wrap;html=1;align=center;rounded=0;shadow=0;glass=0;strokeColor=default;fillColor=default;fontColor=default;verticalAlign=middle;fontFamily=Helvetica;fontSize=16;fontStyle=1" parent="SIpfl7NKByW21zQpW2tj-8" vertex="1">
          <mxGeometry x="40" y="670" width="180" height="60" as="geometry" />
        </mxCell>
        <UserObject label="患者库" id="-22HzztCrq7GmQZzHRGp-7">
          <mxCell style="swimlane;fontSize=18;align=center;swimlaneFillColor=#f4f4f4;fillColor=#ffe6cc;collapsible=0;startSize=40;strokeColor=#d79b00;fontStyle=1;container=0;" vertex="1" parent="1">
            <mxGeometry x="169.5" y="460" width="370" height="300" as="geometry" />
          </mxCell>
        </UserObject>
        <mxCell id="3K_oNV2d-IeETJ5J5liT-127" value="患者信息" style="whiteSpace=wrap;html=1;fontSize=14;fontStyle=1;container=0;" parent="1" vertex="1">
          <mxGeometry x="190.5" y="511" width="100" height="40" as="geometry" />
        </mxCell>
        <mxCell id="3K_oNV2d-IeETJ5J5liT-132" value="检查信息" style="whiteSpace=wrap;html=1;fontSize=14;fontStyle=1;container=0;" parent="1" vertex="1">
          <mxGeometry x="319.5" y="511" width="100" height="40" as="geometry" />
        </mxCell>
        <mxCell id="3K_oNV2d-IeETJ5J5liT-137" value="病理检查" style="whiteSpace=wrap;html=1;fontSize=14;fontStyle=1;container=0;" parent="1" vertex="1">
          <mxGeometry x="439.5" y="511" width="100" height="40" as="geometry" />
        </mxCell>
        <mxCell id="3K_oNV2d-IeETJ5J5liT-128" value="就诊信息" style="whiteSpace=wrap;html=1;fontSize=14;fontStyle=1;container=0;" parent="1" vertex="1">
          <mxGeometry x="190.5" y="561" width="100" height="40" as="geometry" />
        </mxCell>
        <mxCell id="3K_oNV2d-IeETJ5J5liT-133" value="检验信息" style="whiteSpace=wrap;html=1;fontSize=14;fontStyle=1;container=0;" parent="1" vertex="1">
          <mxGeometry x="319.5" y="561" width="100" height="40" as="geometry" />
        </mxCell>
        <mxCell id="3K_oNV2d-IeETJ5J5liT-138" value="放疗信息" style="whiteSpace=wrap;html=1;fontSize=14;fontStyle=1;container=0;" parent="1" vertex="1">
          <mxGeometry x="439.5" y="561" width="100" height="40" as="geometry" />
        </mxCell>
        <mxCell id="3K_oNV2d-IeETJ5J5liT-130" value="处方信息" style="whiteSpace=wrap;html=1;fontSize=14;fontStyle=1;container=0;" parent="1" vertex="1">
          <mxGeometry x="190.5" y="611" width="100" height="40" as="geometry" />
        </mxCell>
        <mxCell id="3K_oNV2d-IeETJ5J5liT-135" value="手术信息" style="whiteSpace=wrap;html=1;fontSize=14;fontStyle=1;container=0;" parent="1" vertex="1">
          <mxGeometry x="319.5" y="611" width="100" height="40" as="geometry" />
        </mxCell>
        <mxCell id="3K_oNV2d-IeETJ5J5liT-140" value="挂号信息" style="whiteSpace=wrap;html=1;fontSize=14;fontStyle=1;container=0;" parent="1" vertex="1">
          <mxGeometry x="439.5" y="611" width="100" height="40" as="geometry" />
        </mxCell>
        <mxCell id="3K_oNV2d-IeETJ5J5liT-129" value="医嘱信息" style="whiteSpace=wrap;html=1;fontSize=14;fontStyle=1;container=0;" parent="1" vertex="1">
          <mxGeometry x="190.5" y="661" width="100" height="40" as="geometry" />
        </mxCell>
        <mxCell id="3K_oNV2d-IeETJ5J5liT-134" value="过敏信息" style="whiteSpace=wrap;html=1;fontSize=14;fontStyle=1;container=0;" parent="1" vertex="1">
          <mxGeometry x="319.5" y="661" width="100" height="40" as="geometry" />
        </mxCell>
        <mxCell id="3K_oNV2d-IeETJ5J5liT-139" value="基因检测信息" style="whiteSpace=wrap;html=1;fontSize=14;fontStyle=1;container=0;" parent="1" vertex="1">
          <mxGeometry x="439.5" y="661" width="100" height="40" as="geometry" />
        </mxCell>
        <mxCell id="3K_oNV2d-IeETJ5J5liT-141" value="病历信息" style="whiteSpace=wrap;html=1;fontSize=14;fontStyle=1;container=0;" parent="1" vertex="1">
          <mxGeometry x="439.5" y="711" width="100" height="40" as="geometry" />
        </mxCell>
        <mxCell id="3K_oNV2d-IeETJ5J5liT-136" value="诊断信息" style="whiteSpace=wrap;html=1;fontSize=14;fontStyle=1;container=0;" parent="1" vertex="1">
          <mxGeometry x="319.5" y="711" width="100" height="40" as="geometry" />
        </mxCell>
        <mxCell id="3K_oNV2d-IeETJ5J5liT-131" value="费用信息" style="whiteSpace=wrap;html=1;fontSize=14;fontStyle=1;container=0;" parent="1" vertex="1">
          <mxGeometry x="190.5" y="711" width="100" height="40" as="geometry" />
        </mxCell>
        <mxCell id="-22HzztCrq7GmQZzHRGp-19" value="" style="group" vertex="1" connectable="0" parent="1">
          <mxGeometry x="561.0002816901409" y="460" width="150" height="300" as="geometry" />
        </mxCell>
        <UserObject label="质控平台系统" id="-22HzztCrq7GmQZzHRGp-13">
          <mxCell style="swimlane;fontSize=18;align=center;swimlaneFillColor=#f4f4f4;fillColor=#ffe6cc;collapsible=0;startSize=40;strokeColor=#d79b00;fontStyle=1;container=0;" vertex="1" parent="-22HzztCrq7GmQZzHRGp-19">
            <mxGeometry width="150" height="300" as="geometry" />
          </mxCell>
        </UserObject>
        <mxCell id="-22HzztCrq7GmQZzHRGp-14" value="x" style="whiteSpace=wrap;html=1;fontSize=14;fontStyle=1;container=0;" vertex="1" parent="-22HzztCrq7GmQZzHRGp-19">
          <mxGeometry x="25" y="51" width="100" height="40" as="geometry" />
        </mxCell>
        <mxCell id="-22HzztCrq7GmQZzHRGp-15" value="x" style="whiteSpace=wrap;html=1;fontSize=14;fontStyle=1;container=0;" vertex="1" parent="-22HzztCrq7GmQZzHRGp-19">
          <mxGeometry x="25" y="101" width="100" height="40" as="geometry" />
        </mxCell>
        <mxCell id="-22HzztCrq7GmQZzHRGp-16" value="x" style="whiteSpace=wrap;html=1;fontSize=14;fontStyle=1;container=0;" vertex="1" parent="-22HzztCrq7GmQZzHRGp-19">
          <mxGeometry x="25" y="201" width="100" height="40" as="geometry" />
        </mxCell>
        <mxCell id="-22HzztCrq7GmQZzHRGp-17" value="x" style="whiteSpace=wrap;html=1;fontSize=14;fontStyle=1;container=0;" vertex="1" parent="-22HzztCrq7GmQZzHRGp-19">
          <mxGeometry x="25" y="151" width="100" height="40" as="geometry" />
        </mxCell>
        <mxCell id="-22HzztCrq7GmQZzHRGp-18" value="x" style="whiteSpace=wrap;html=1;fontSize=14;fontStyle=1;container=0;" vertex="1" parent="-22HzztCrq7GmQZzHRGp-19">
          <mxGeometry x="25" y="251" width="100" height="40" as="geometry" />
        </mxCell>
        <mxCell id="-22HzztCrq7GmQZzHRGp-20" value="" style="group" vertex="1" connectable="0" parent="1">
          <mxGeometry x="738" y="460" width="150" height="300" as="geometry" />
        </mxCell>
        <UserObject label="电子病历" id="-22HzztCrq7GmQZzHRGp-21">
          <mxCell style="swimlane;fontSize=18;align=center;swimlaneFillColor=#f4f4f4;fillColor=#ffe6cc;collapsible=0;startSize=40;strokeColor=#d79b00;fontStyle=1;container=0;" vertex="1" parent="-22HzztCrq7GmQZzHRGp-20">
            <mxGeometry width="150" height="300" as="geometry" />
          </mxCell>
        </UserObject>
        <mxCell id="-22HzztCrq7GmQZzHRGp-22" value="x" style="whiteSpace=wrap;html=1;fontSize=14;fontStyle=1;container=0;" vertex="1" parent="-22HzztCrq7GmQZzHRGp-20">
          <mxGeometry x="25" y="51" width="100" height="40" as="geometry" />
        </mxCell>
        <mxCell id="-22HzztCrq7GmQZzHRGp-23" value="x" style="whiteSpace=wrap;html=1;fontSize=14;fontStyle=1;container=0;" vertex="1" parent="-22HzztCrq7GmQZzHRGp-20">
          <mxGeometry x="25" y="101" width="100" height="40" as="geometry" />
        </mxCell>
        <mxCell id="-22HzztCrq7GmQZzHRGp-24" value="x" style="whiteSpace=wrap;html=1;fontSize=14;fontStyle=1;container=0;" vertex="1" parent="-22HzztCrq7GmQZzHRGp-20">
          <mxGeometry x="25" y="201" width="100" height="40" as="geometry" />
        </mxCell>
        <mxCell id="-22HzztCrq7GmQZzHRGp-25" value="x" style="whiteSpace=wrap;html=1;fontSize=14;fontStyle=1;container=0;" vertex="1" parent="-22HzztCrq7GmQZzHRGp-20">
          <mxGeometry x="25" y="151" width="100" height="40" as="geometry" />
        </mxCell>
        <mxCell id="-22HzztCrq7GmQZzHRGp-26" value="x" style="whiteSpace=wrap;html=1;fontSize=14;fontStyle=1;container=0;" vertex="1" parent="-22HzztCrq7GmQZzHRGp-20">
          <mxGeometry x="25" y="251" width="100" height="40" as="geometry" />
        </mxCell>
        <mxCell id="-22HzztCrq7GmQZzHRGp-27" value="" style="group" vertex="1" connectable="0" parent="1">
          <mxGeometry x="916" y="460" width="150" height="300" as="geometry" />
        </mxCell>
        <UserObject label="临床评价系统" id="-22HzztCrq7GmQZzHRGp-28">
          <mxCell style="swimlane;fontSize=18;align=center;swimlaneFillColor=#f4f4f4;fillColor=#ffe6cc;collapsible=0;startSize=40;strokeColor=#d79b00;fontStyle=1;container=0;" vertex="1" parent="-22HzztCrq7GmQZzHRGp-27">
            <mxGeometry width="150" height="300" as="geometry" />
          </mxCell>
        </UserObject>
        <mxCell id="-22HzztCrq7GmQZzHRGp-29" value="x" style="whiteSpace=wrap;html=1;fontSize=14;fontStyle=1;container=0;" vertex="1" parent="-22HzztCrq7GmQZzHRGp-27">
          <mxGeometry x="25" y="51" width="100" height="40" as="geometry" />
        </mxCell>
        <mxCell id="-22HzztCrq7GmQZzHRGp-30" value="x" style="whiteSpace=wrap;html=1;fontSize=14;fontStyle=1;container=0;" vertex="1" parent="-22HzztCrq7GmQZzHRGp-27">
          <mxGeometry x="25" y="101" width="100" height="40" as="geometry" />
        </mxCell>
        <mxCell id="-22HzztCrq7GmQZzHRGp-31" value="x" style="whiteSpace=wrap;html=1;fontSize=14;fontStyle=1;container=0;" vertex="1" parent="-22HzztCrq7GmQZzHRGp-27">
          <mxGeometry x="25" y="201" width="100" height="40" as="geometry" />
        </mxCell>
        <mxCell id="-22HzztCrq7GmQZzHRGp-32" value="x" style="whiteSpace=wrap;html=1;fontSize=14;fontStyle=1;container=0;" vertex="1" parent="-22HzztCrq7GmQZzHRGp-27">
          <mxGeometry x="25" y="151" width="100" height="40" as="geometry" />
        </mxCell>
        <mxCell id="-22HzztCrq7GmQZzHRGp-33" value="x" style="whiteSpace=wrap;html=1;fontSize=14;fontStyle=1;container=0;" vertex="1" parent="-22HzztCrq7GmQZzHRGp-27">
          <mxGeometry x="25" y="251" width="100" height="40" as="geometry" />
        </mxCell>
        <mxCell id="-22HzztCrq7GmQZzHRGp-43" value="" style="group" vertex="1" connectable="0" parent="1">
          <mxGeometry x="1270.000281690141" y="460" width="150" height="300" as="geometry" />
        </mxCell>
        <UserObject label="处方流转" id="-22HzztCrq7GmQZzHRGp-44">
          <mxCell style="swimlane;fontSize=18;align=center;swimlaneFillColor=#f4f4f4;fillColor=#ffe6cc;collapsible=0;startSize=40;strokeColor=#d79b00;fontStyle=1;container=0;" vertex="1" parent="-22HzztCrq7GmQZzHRGp-43">
            <mxGeometry width="150" height="300" as="geometry" />
          </mxCell>
        </UserObject>
        <mxCell id="-22HzztCrq7GmQZzHRGp-45" value="患者数据库" style="whiteSpace=wrap;html=1;fontSize=14;fontStyle=1;container=0;" vertex="1" parent="-22HzztCrq7GmQZzHRGp-43">
          <mxGeometry x="25" y="51" width="100" height="40" as="geometry" />
        </mxCell>
        <mxCell id="-22HzztCrq7GmQZzHRGp-46" value="处方创建" style="whiteSpace=wrap;html=1;fontSize=14;fontStyle=1;container=0;" vertex="1" parent="-22HzztCrq7GmQZzHRGp-43">
          <mxGeometry x="25" y="101" width="100" height="40" as="geometry" />
        </mxCell>
        <mxCell id="-22HzztCrq7GmQZzHRGp-47" value="处方签章" style="whiteSpace=wrap;html=1;fontSize=14;fontStyle=1;container=0;" vertex="1" parent="-22HzztCrq7GmQZzHRGp-43">
          <mxGeometry x="25" y="201" width="100" height="40" as="geometry" />
        </mxCell>
        <mxCell id="-22HzztCrq7GmQZzHRGp-48" value="处方审核" style="whiteSpace=wrap;html=1;fontSize=14;fontStyle=1;container=0;" vertex="1" parent="-22HzztCrq7GmQZzHRGp-43">
          <mxGeometry x="25" y="151" width="100" height="40" as="geometry" />
        </mxCell>
        <mxCell id="-22HzztCrq7GmQZzHRGp-49" value="处方共享" style="whiteSpace=wrap;html=1;fontSize=14;fontStyle=1;container=0;" vertex="1" parent="-22HzztCrq7GmQZzHRGp-43">
          <mxGeometry x="25" y="251" width="100" height="40" as="geometry" />
        </mxCell>
        <mxCell id="-22HzztCrq7GmQZzHRGp-51" value="" style="group" vertex="1" connectable="0" parent="1">
          <mxGeometry x="1093" y="460" width="150" height="300" as="geometry" />
        </mxCell>
        <UserObject label="审方系统" id="-22HzztCrq7GmQZzHRGp-52">
          <mxCell style="swimlane;fontSize=18;align=center;swimlaneFillColor=#f4f4f4;fillColor=#ffe6cc;collapsible=0;startSize=40;strokeColor=#d79b00;fontStyle=1;container=0;" vertex="1" parent="-22HzztCrq7GmQZzHRGp-51">
            <mxGeometry width="150" height="300" as="geometry" />
          </mxCell>
        </UserObject>
        <mxCell id="-22HzztCrq7GmQZzHRGp-53" value="x" style="whiteSpace=wrap;html=1;fontSize=14;fontStyle=1;container=0;" vertex="1" parent="-22HzztCrq7GmQZzHRGp-51">
          <mxGeometry x="25" y="51" width="100" height="40" as="geometry" />
        </mxCell>
        <mxCell id="-22HzztCrq7GmQZzHRGp-54" value="x" style="whiteSpace=wrap;html=1;fontSize=14;fontStyle=1;container=0;" vertex="1" parent="-22HzztCrq7GmQZzHRGp-51">
          <mxGeometry x="25" y="101" width="100" height="40" as="geometry" />
        </mxCell>
        <mxCell id="-22HzztCrq7GmQZzHRGp-55" value="x" style="whiteSpace=wrap;html=1;fontSize=14;fontStyle=1;container=0;" vertex="1" parent="-22HzztCrq7GmQZzHRGp-51">
          <mxGeometry x="25" y="201" width="100" height="40" as="geometry" />
        </mxCell>
        <mxCell id="-22HzztCrq7GmQZzHRGp-56" value="x" style="whiteSpace=wrap;html=1;fontSize=14;fontStyle=1;container=0;" vertex="1" parent="-22HzztCrq7GmQZzHRGp-51">
          <mxGeometry x="25" y="151" width="100" height="40" as="geometry" />
        </mxCell>
        <mxCell id="-22HzztCrq7GmQZzHRGp-57" value="x" style="whiteSpace=wrap;html=1;fontSize=14;fontStyle=1;container=0;" vertex="1" parent="-22HzztCrq7GmQZzHRGp-51">
          <mxGeometry x="25" y="251" width="100" height="40" as="geometry" />
        </mxCell>
        <UserObject label="规则库" id="-22HzztCrq7GmQZzHRGp-58">
          <mxCell style="swimlane;fontSize=18;align=center;swimlaneFillColor=#f4f4f4;fillColor=#ffe6cc;collapsible=0;startSize=40;strokeColor=#d79b00;fontStyle=1;container=0;" vertex="1" parent="1">
            <mxGeometry x="170" y="890" width="255.5" height="420" as="geometry" />
          </mxCell>
        </UserObject>
        <mxCell id="-22HzztCrq7GmQZzHRGp-59" value="特殊人群" style="whiteSpace=wrap;html=1;fontStyle=1;fontSize=14;container=0;" vertex="1" parent="1">
          <mxGeometry x="185" y="940" width="100" height="40" as="geometry" />
        </mxCell>
        <mxCell id="-22HzztCrq7GmQZzHRGp-60" value="用药单位" style="whiteSpace=wrap;html=1;fontStyle=1;fontSize=14;container=0;" vertex="1" parent="1">
          <mxGeometry x="185" y="990" width="100" height="40" as="geometry" />
        </mxCell>
        <mxCell id="-22HzztCrq7GmQZzHRGp-61" value="用药天数" style="whiteSpace=wrap;html=1;fontStyle=1;fontSize=14;container=0;" vertex="1" parent="1">
          <mxGeometry x="185" y="1045" width="100" height="40" as="geometry" />
        </mxCell>
        <mxCell id="-22HzztCrq7GmQZzHRGp-62" value="用药频次" style="whiteSpace=wrap;html=1;fontStyle=1;fontSize=14;container=0;" vertex="1" parent="1">
          <mxGeometry x="185" y="1098" width="100" height="40" as="geometry" />
        </mxCell>
        <mxCell id="-22HzztCrq7GmQZzHRGp-63" value="相互作用" style="whiteSpace=wrap;html=1;fontStyle=1;fontSize=14;container=0;" vertex="1" parent="1">
          <mxGeometry x="185" y="1149" width="100" height="40" as="geometry" />
        </mxCell>
        <mxCell id="-22HzztCrq7GmQZzHRGp-64" value="禁忌症" style="whiteSpace=wrap;html=1;fontStyle=1;fontSize=14;container=0;" vertex="1" parent="1">
          <mxGeometry x="185" y="1199" width="100" height="40" as="geometry" />
        </mxCell>
        <mxCell id="-22HzztCrq7GmQZzHRGp-65" value="给药途径" style="whiteSpace=wrap;html=1;fontStyle=1;fontSize=14;container=0;" vertex="1" parent="1">
          <mxGeometry x="305" y="940" width="100" height="40" as="geometry" />
        </mxCell>
        <mxCell id="-22HzztCrq7GmQZzHRGp-66" value="药品用量" style="whiteSpace=wrap;html=1;fontStyle=1;fontSize=14;container=0;" vertex="1" parent="1">
          <mxGeometry x="305" y="990" width="100" height="40" as="geometry" />
        </mxCell>
        <mxCell id="-22HzztCrq7GmQZzHRGp-67" value="超适应症" style="whiteSpace=wrap;html=1;fontStyle=1;fontSize=14;container=0;" vertex="1" parent="1">
          <mxGeometry x="305" y="1045" width="100" height="40" as="geometry" />
        </mxCell>
        <mxCell id="-22HzztCrq7GmQZzHRGp-68" value="适应症" style="whiteSpace=wrap;html=1;fontStyle=1;fontSize=14;container=0;" vertex="1" parent="1">
          <mxGeometry x="305" y="1098" width="100" height="40" as="geometry" />
        </mxCell>
        <mxCell id="-22HzztCrq7GmQZzHRGp-69" value="配伍禁忌" style="whiteSpace=wrap;html=1;fontStyle=1;fontSize=14;container=0;" vertex="1" parent="1">
          <mxGeometry x="305" y="1149" width="100" height="40" as="geometry" />
        </mxCell>
        <mxCell id="-22HzztCrq7GmQZzHRGp-70" value="重复用药" style="whiteSpace=wrap;html=1;fontStyle=1;fontSize=14;container=0;" vertex="1" parent="1">
          <mxGeometry x="305" y="1199" width="100" height="40" as="geometry" />
        </mxCell>
        <mxCell id="-22HzztCrq7GmQZzHRGp-73" value="" style="group" vertex="1" connectable="0" parent="1">
          <mxGeometry x="450" y="890" width="980" height="440" as="geometry" />
        </mxCell>
        <UserObject label="知识库" id="-22HzztCrq7GmQZzHRGp-72">
          <mxCell style="swimlane;fontSize=18;align=center;swimlaneFillColor=#f4f4f4;fillColor=#ffe6cc;collapsible=0;startSize=40;strokeColor=#d79b00;fontStyle=1;container=0;" vertex="1" parent="-22HzztCrq7GmQZzHRGp-73">
            <mxGeometry width="980" height="440" as="geometry" />
          </mxCell>
        </UserObject>
        <mxCell id="3K_oNV2d-IeETJ5J5liT-13" value="&lt;h3 style=&quot;box-sizing: inherit; color: rgb(6, 6, 7); margin-bottom: 0px; font-size: 14px; line-height: 24px; margin-top: 1.14em; font-family: -apple-system, blinkmacsystemfont, &amp;quot;Helvetica Neue&amp;quot;, helvetica, &amp;quot;segoe ui&amp;quot;, arial, roboto, &amp;quot;PingFang SC&amp;quot;, miui, &amp;quot;Hiragino Sans GB&amp;quot;, &amp;quot;Microsoft Yahei&amp;quot;, sans-serif; letter-spacing: 0.5px; text-align: start; background-color: rgb(255, 255, 255);&quot;&gt;药物使用与管理&lt;/h3&gt;" style="whiteSpace=wrap;html=1;verticalAlign=top;container=0;" parent="-22HzztCrq7GmQZzHRGp-73" vertex="1">
          <mxGeometry x="660" y="52" width="140" height="368" as="geometry" />
        </mxCell>
        <mxCell id="3K_oNV2d-IeETJ5J5liT-14" value="&lt;h3 style=&quot;box-sizing: inherit; color: rgb(6, 6, 7); margin-bottom: 0px; font-size: 14px; line-height: 24px; margin-top: 1.14em; font-family: -apple-system, blinkmacsystemfont, &amp;quot;Helvetica Neue&amp;quot;, helvetica, &amp;quot;segoe ui&amp;quot;, arial, roboto, &amp;quot;PingFang SC&amp;quot;, miui, &amp;quot;Hiragino Sans GB&amp;quot;, &amp;quot;Microsoft Yahei&amp;quot;, sans-serif; letter-spacing: 0.5px; text-align: start; background-color: rgb(255, 255, 255);&quot;&gt;医学研究与教育&lt;/h3&gt;" style="whiteSpace=wrap;html=1;verticalAlign=top;container=0;" parent="-22HzztCrq7GmQZzHRGp-73" vertex="1">
          <mxGeometry x="820" y="52" width="140" height="368" as="geometry" />
        </mxCell>
        <mxCell id="3K_oNV2d-IeETJ5J5liT-15" value="&lt;h3 style=&quot;box-sizing: inherit; color: rgb(6, 6, 7); margin-bottom: 0px; font-size: 14px; line-height: 24px; margin-top: 1.14em; font-family: -apple-system, blinkmacsystemfont, &amp;quot;Helvetica Neue&amp;quot;, helvetica, &amp;quot;segoe ui&amp;quot;, arial, roboto, &amp;quot;PingFang SC&amp;quot;, miui, &amp;quot;Hiragino Sans GB&amp;quot;, &amp;quot;Microsoft Yahei&amp;quot;, sans-serif; letter-spacing: 0.5px; text-align: start; background-color: rgb(255, 255, 255);&quot;&gt;用药安全与监测&lt;/h3&gt;" style="whiteSpace=wrap;html=1;verticalAlign=top;container=0;" parent="-22HzztCrq7GmQZzHRGp-73" vertex="1">
          <mxGeometry x="500" y="52" width="140" height="368" as="geometry" />
        </mxCell>
        <mxCell id="3K_oNV2d-IeETJ5J5liT-16" value="&lt;h3 style=&quot;box-sizing: inherit; color: rgb(6, 6, 7); margin-bottom: 0px; font-size: 14px; line-height: 24px; margin-top: 1.14em; font-family: -apple-system, blinkmacsystemfont, &amp;quot;Helvetica Neue&amp;quot;, helvetica, &amp;quot;segoe ui&amp;quot;, arial, roboto, &amp;quot;PingFang SC&amp;quot;, miui, &amp;quot;Hiragino Sans GB&amp;quot;, &amp;quot;Microsoft Yahei&amp;quot;, sans-serif; letter-spacing: 0.5px; text-align: start; background-color: rgb(255, 255, 255);&quot;&gt;特殊人群用药&lt;/h3&gt;" style="whiteSpace=wrap;html=1;verticalAlign=top;container=0;" parent="-22HzztCrq7GmQZzHRGp-73" vertex="1">
          <mxGeometry x="340" y="52" width="140" height="368" as="geometry" />
        </mxCell>
        <mxCell id="3K_oNV2d-IeETJ5J5liT-17" value="&lt;h3 style=&quot;box-sizing: inherit; color: rgb(6, 6, 7); margin-bottom: 0px; font-size: 14px; line-height: 24px; margin-top: 1.14em; font-family: -apple-system, blinkmacsystemfont, &amp;quot;Helvetica Neue&amp;quot;, helvetica, &amp;quot;segoe ui&amp;quot;, arial, roboto, &amp;quot;PingFang SC&amp;quot;, miui, &amp;quot;Hiragino Sans GB&amp;quot;, &amp;quot;Microsoft Yahei&amp;quot;, sans-serif; letter-spacing: 0.5px; text-align: start; background-color: rgb(255, 255, 255);&quot;&gt;临床应用与指南&lt;/h3&gt;" style="whiteSpace=wrap;html=1;verticalAlign=top;container=0;" parent="-22HzztCrq7GmQZzHRGp-73" vertex="1">
          <mxGeometry x="180" y="52" width="140" height="368" as="geometry" />
        </mxCell>
        <mxCell id="3K_oNV2d-IeETJ5J5liT-18" value="&lt;h3 style=&quot;box-sizing: inherit; color: rgb(6, 6, 7); margin-bottom: 0px; font-size: 14px; line-height: 24px; margin-top: 1.14em; font-family: -apple-system, blinkmacsystemfont, &amp;quot;Helvetica Neue&amp;quot;, helvetica, &amp;quot;segoe ui&amp;quot;, arial, roboto, &amp;quot;PingFang SC&amp;quot;, miui, &amp;quot;Hiragino Sans GB&amp;quot;, &amp;quot;Microsoft Yahei&amp;quot;, sans-serif; letter-spacing: 0.5px; text-align: start; background-color: rgb(255, 255, 255);&quot;&gt;基础知识与法规&lt;/h3&gt;" style="whiteSpace=wrap;html=1;verticalAlign=top;container=0;" parent="-22HzztCrq7GmQZzHRGp-73" vertex="1">
          <mxGeometry x="20" y="52" width="140" height="368" as="geometry" />
        </mxCell>
        <mxCell id="3K_oNV2d-IeETJ5J5liT-19" value="药品说明书" style="whiteSpace=wrap;html=1;fontStyle=1;fontSize=14;container=0;" parent="-22HzztCrq7GmQZzHRGp-73" vertex="1">
          <mxGeometry x="30" y="110" width="100" height="40" as="geometry" />
        </mxCell>
        <mxCell id="3K_oNV2d-IeETJ5J5liT-20" value="临床用药指南" style="whiteSpace=wrap;html=1;fontStyle=1;fontSize=14;container=0;" parent="-22HzztCrq7GmQZzHRGp-73" vertex="1">
          <mxGeometry x="200" y="102" width="100" height="40" as="geometry" />
        </mxCell>
        <mxCell id="3K_oNV2d-IeETJ5J5liT-21" value="&lt;div data-docx-has-block-data=&quot;false&quot; data-page-id=&quot;U75hdgrPCo3RmMxpjT1cg51FnG2&quot; style=&quot;font-size: 14px;&quot;&gt;&lt;div class=&quot;old-record-id-FYGXdTRgKoE5KMxUbOHcS2Pdn7e&quot; style=&quot;font-size: 14px;&quot;&gt;&lt;strong style=&quot;font-size: 14px;&quot;&gt;法律法规&lt;/strong&gt;&lt;/div&gt;&lt;/div&gt;" style="whiteSpace=wrap;html=1;fontStyle=1;fontSize=14;container=0;" parent="-22HzztCrq7GmQZzHRGp-73" vertex="1">
          <mxGeometry x="30" y="308" width="100" height="40" as="geometry" />
        </mxCell>
        <mxCell id="3K_oNV2d-IeETJ5J5liT-22" value="&lt;div data-docx-has-block-data=&quot;false&quot; data-page-id=&quot;U75hdgrPCo3RmMxpjT1cg51FnG2&quot; style=&quot;font-size: 14px;&quot;&gt;&lt;div class=&quot;old-record-id-CLDddbItjoVo6kxUgAkcXU8XnOe&quot; style=&quot;font-size: 14px;&quot;&gt;&lt;strong style=&quot;font-size: 14px;&quot;&gt;常用医学公式&lt;/strong&gt;&lt;/div&gt;&lt;/div&gt;" style="whiteSpace=wrap;html=1;fontStyle=1;fontSize=14;container=0;" parent="-22HzztCrq7GmQZzHRGp-73" vertex="1">
          <mxGeometry x="840" y="208" width="100" height="40" as="geometry" />
        </mxCell>
        <mxCell id="3K_oNV2d-IeETJ5J5liT-23" value="临床检验知识" style="whiteSpace=wrap;html=1;fontStyle=1;fontSize=14;container=0;" parent="-22HzztCrq7GmQZzHRGp-73" vertex="1">
          <mxGeometry x="680" y="157" width="100" height="40" as="geometry" />
        </mxCell>
        <mxCell id="3K_oNV2d-IeETJ5J5liT-24" value="&lt;div data-docx-has-block-data=&quot;false&quot; data-page-id=&quot;U75hdgrPCo3RmMxpjT1cg51FnG2&quot; style=&quot;font-size: 14px;&quot;&gt;&lt;div class=&quot;old-record-id-EXo7dg6DLoo32ixrx4Tc7MjunOd&quot; style=&quot;font-size: 14px;&quot;&gt;&lt;strong style=&quot;font-size: 14px;&quot;&gt;抗菌药物分类&lt;/strong&gt;&lt;/div&gt;&lt;/div&gt;" style="whiteSpace=wrap;html=1;fontStyle=1;fontSize=14;container=0;" parent="-22HzztCrq7GmQZzHRGp-73" vertex="1">
          <mxGeometry x="520" y="210" width="100" height="40" as="geometry" />
        </mxCell>
        <mxCell id="3K_oNV2d-IeETJ5J5liT-25" value="&lt;div data-docx-has-block-data=&quot;false&quot; data-page-id=&quot;U75hdgrPCo3RmMxpjT1cg51FnG2&quot; style=&quot;font-size: 14px;&quot;&gt;&lt;div class=&quot;old-record-id-D2B9dTwMGoJGDDxROYZck5bGnDc&quot; style=&quot;font-size: 14px;&quot;&gt;&lt;strong style=&quot;font-size: 14px;&quot;&gt;疾病用药知识&lt;/strong&gt;&lt;/div&gt;&lt;/div&gt;" style="whiteSpace=wrap;html=1;fontStyle=1;fontSize=14;container=0;" parent="-22HzztCrq7GmQZzHRGp-73" vertex="1">
          <mxGeometry x="520" y="358" width="100" height="40" as="geometry" />
        </mxCell>
        <mxCell id="3K_oNV2d-IeETJ5J5liT-26" value="&lt;div data-docx-has-block-data=&quot;false&quot; data-page-id=&quot;U75hdgrPCo3RmMxpjT1cg51FnG2&quot; style=&quot;font-size: 14px;&quot;&gt;&lt;div class=&quot;old-record-id-RJVHdkrtOoJGQ8xDvC4cPjFMnng&quot; style=&quot;font-size: 14px;&quot;&gt;&lt;strong style=&quot;font-size: 14px;&quot;&gt;妊娠分级用药&lt;/strong&gt;&lt;/div&gt;&lt;/div&gt;" style="whiteSpace=wrap;html=1;fontStyle=1;fontSize=14;container=0;" parent="-22HzztCrq7GmQZzHRGp-73" vertex="1">
          <mxGeometry x="360" y="110" width="100" height="40" as="geometry" />
        </mxCell>
        <mxCell id="3K_oNV2d-IeETJ5J5liT-27" value="&lt;div data-docx-has-block-data=&quot;false&quot; data-page-id=&quot;U75hdgrPCo3RmMxpjT1cg51FnG2&quot; style=&quot;font-size: 14px;&quot;&gt;&lt;div class=&quot;old-record-id-FYGXdTRgKoE5KMxUbOHcS2Pdn7e&quot; style=&quot;font-size: 14px;&quot;&gt;&lt;div data-docx-has-block-data=&quot;false&quot; data-page-id=&quot;U75hdgrPCo3RmMxpjT1cg51FnG2&quot; style=&quot;font-size: 14px;&quot;&gt;&lt;div class=&quot;old-record-id-RFyWdTkMNoQjnLxzmz2cja4onub&quot; style=&quot;font-size: 14px;&quot;&gt;&lt;strong style=&quot;font-size: 14px;&quot;&gt;中药使用知识&lt;/strong&gt;&lt;/div&gt;&lt;/div&gt;&lt;/div&gt;&lt;/div&gt;" style="whiteSpace=wrap;html=1;fontStyle=1;fontSize=14;container=0;" parent="-22HzztCrq7GmQZzHRGp-73" vertex="1">
          <mxGeometry x="840" y="308" width="100" height="40" as="geometry" />
        </mxCell>
        <mxCell id="3K_oNV2d-IeETJ5J5liT-28" value="&lt;div data-docx-has-block-data=&quot;false&quot; data-page-id=&quot;U75hdgrPCo3RmMxpjT1cg51FnG2&quot; style=&quot;font-size: 14px;&quot;&gt;&lt;div class=&quot;old-record-id-CLDddbItjoVo6kxUgAkcXU8XnOe&quot; style=&quot;font-size: 14px;&quot;&gt;&lt;div data-docx-has-block-data=&quot;false&quot; data-page-id=&quot;U75hdgrPCo3RmMxpjT1cg51FnG2&quot; style=&quot;font-size: 14px;&quot;&gt;&lt;div class=&quot;old-record-id-CsDQdUX7konVqsxgs9XcECbYnS8&quot; style=&quot;font-size: 14px;&quot;&gt;&lt;strong style=&quot;font-size: 14px;&quot;&gt;细菌感染用药知识&lt;/strong&gt;&lt;/div&gt;&lt;/div&gt;&lt;/div&gt;&lt;/div&gt;" style="whiteSpace=wrap;html=1;fontStyle=1;fontSize=14;container=0;" parent="-22HzztCrq7GmQZzHRGp-73" vertex="1">
          <mxGeometry x="520" y="308" width="100" height="40" as="geometry" />
        </mxCell>
        <mxCell id="3K_oNV2d-IeETJ5J5liT-29" value="&lt;div data-docx-has-block-data=&quot;false&quot; data-page-id=&quot;U75hdgrPCo3RmMxpjT1cg51FnG2&quot; style=&quot;font-size: 14px;&quot;&gt;&lt;div class=&quot;old-record-id-UTmzdrPZXoEd0Oxs3BUc9eYVn1b&quot; style=&quot;font-size: 14px;&quot;&gt;&lt;strong style=&quot;font-size: 14px;&quot;&gt;肝肾功能不全&lt;/strong&gt;&lt;/div&gt;&lt;/div&gt;" style="whiteSpace=wrap;html=1;fontStyle=1;fontSize=14;container=0;" parent="-22HzztCrq7GmQZzHRGp-73" vertex="1">
          <mxGeometry x="520" y="258" width="100" height="40" as="geometry" />
        </mxCell>
        <mxCell id="3K_oNV2d-IeETJ5J5liT-30" value="&lt;div data-docx-has-block-data=&quot;false&quot; data-page-id=&quot;U75hdgrPCo3RmMxpjT1cg51FnG2&quot; style=&quot;font-size: 14px;&quot;&gt;&lt;div class=&quot;old-record-id-EXo7dg6DLoo32ixrx4Tc7MjunOd&quot; style=&quot;font-size: 14px;&quot;&gt;&lt;div data-docx-has-block-data=&quot;false&quot; data-page-id=&quot;U75hdgrPCo3RmMxpjT1cg51FnG2&quot; style=&quot;font-size: 14px;&quot;&gt;&lt;div class=&quot;old-record-id-PyWydc38roqyKWxt1x6clvcvnDh&quot; style=&quot;font-size: 14px;&quot;&gt;&lt;strong style=&quot;font-size: 14px;&quot;&gt;药物配伍&lt;/strong&gt;&lt;/div&gt;&lt;/div&gt;&lt;/div&gt;&lt;/div&gt;" style="whiteSpace=wrap;html=1;fontStyle=1;fontSize=14;container=0;" parent="-22HzztCrq7GmQZzHRGp-73" vertex="1">
          <mxGeometry x="520" y="160" width="100" height="40" as="geometry" />
        </mxCell>
        <mxCell id="3K_oNV2d-IeETJ5J5liT-31" value="&lt;div data-docx-has-block-data=&quot;false&quot; data-page-id=&quot;U75hdgrPCo3RmMxpjT1cg51FnG2&quot; style=&quot;font-size: 14px;&quot;&gt;&lt;div class=&quot;old-record-id-KXI4dxLmWoabesxjAwXcH6y2nfO&quot; style=&quot;font-size: 14px;&quot;&gt;&lt;strong style=&quot;font-size: 14px;&quot;&gt;中国药典&lt;/strong&gt;&lt;/div&gt;&lt;/div&gt;" style="whiteSpace=wrap;html=1;fontStyle=1;fontSize=14;container=0;" parent="-22HzztCrq7GmQZzHRGp-73" vertex="1">
          <mxGeometry x="30" y="160" width="100" height="40" as="geometry" />
        </mxCell>
        <mxCell id="3K_oNV2d-IeETJ5J5liT-32" value="&lt;div data-docx-has-block-data=&quot;false&quot; data-page-id=&quot;U75hdgrPCo3RmMxpjT1cg51FnG2&quot; style=&quot;font-size: 14px;&quot;&gt;&lt;div class=&quot;old-record-id-FYGXdTRgKoE5KMxUbOHcS2Pdn7e&quot; style=&quot;font-size: 14px;&quot;&gt;&lt;div data-docx-has-block-data=&quot;false&quot; data-page-id=&quot;U75hdgrPCo3RmMxpjT1cg51FnG2&quot; style=&quot;font-size: 14px;&quot;&gt;&lt;div class=&quot;old-record-id-KKSwd7td4oOasQx6DPScpFrDnDc&quot; style=&quot;font-size: 14px;&quot;&gt;&lt;strong style=&quot;font-size: 14px;&quot;&gt;处方集&lt;/strong&gt;&lt;/div&gt;&lt;/div&gt;&lt;/div&gt;&lt;/div&gt;" style="whiteSpace=wrap;html=1;fontStyle=1;fontSize=14;container=0;" parent="-22HzztCrq7GmQZzHRGp-73" vertex="1">
          <mxGeometry x="30" y="258" width="100" height="40" as="geometry" />
        </mxCell>
        <mxCell id="3K_oNV2d-IeETJ5J5liT-33" value="&lt;div data-docx-has-block-data=&quot;false&quot; data-page-id=&quot;U75hdgrPCo3RmMxpjT1cg51FnG2&quot; style=&quot;font-size: 14px;&quot;&gt;&lt;div class=&quot;old-record-id-CLDddbItjoVo6kxUgAkcXU8XnOe&quot; style=&quot;font-size: 14px;&quot;&gt;&lt;div data-docx-has-block-data=&quot;false&quot; data-page-id=&quot;U75hdgrPCo3RmMxpjT1cg51FnG2&quot; style=&quot;font-size: 14px;&quot;&gt;&lt;div class=&quot;old-record-id-CizYdL75qoCFmixBCsxcFThYnwb&quot; style=&quot;font-size: 14px;&quot;&gt;&lt;strong style=&quot;font-size: 14px;&quot;&gt;文献期刊&lt;/strong&gt;&lt;/div&gt;&lt;/div&gt;&lt;/div&gt;&lt;/div&gt;" style="whiteSpace=wrap;html=1;fontStyle=1;fontSize=14;container=0;" parent="-22HzztCrq7GmQZzHRGp-73" vertex="1">
          <mxGeometry x="840" y="110" width="100" height="40" as="geometry" />
        </mxCell>
        <mxCell id="3K_oNV2d-IeETJ5J5liT-34" value="&lt;div data-docx-has-block-data=&quot;false&quot; data-page-id=&quot;U75hdgrPCo3RmMxpjT1cg51FnG2&quot; style=&quot;font-size: 14px;&quot;&gt;&lt;div class=&quot;old-record-id-RJVHdkrtOoJGQ8xDvC4cPjFMnng&quot; style=&quot;font-size: 14px;&quot;&gt;&lt;div data-docx-has-block-data=&quot;false&quot; data-page-id=&quot;U75hdgrPCo3RmMxpjT1cg51FnG2&quot; style=&quot;font-size: 14px;&quot;&gt;&lt;div class=&quot;old-record-id-BzTIdsnTWohq5fxiD9QcLEJ9nZg&quot; style=&quot;font-size: 14px;&quot;&gt;&lt;strong style=&quot;font-size: 14px;&quot;&gt;临床指南&lt;/strong&gt;&lt;/div&gt;&lt;/div&gt;&lt;/div&gt;&lt;/div&gt;" style="whiteSpace=wrap;html=1;fontStyle=1;fontSize=14;container=0;" parent="-22HzztCrq7GmQZzHRGp-73" vertex="1">
          <mxGeometry x="30" y="210" width="100" height="40" as="geometry" />
        </mxCell>
        <mxCell id="3K_oNV2d-IeETJ5J5liT-35" value="&lt;div data-docx-has-block-data=&quot;false&quot; data-page-id=&quot;U75hdgrPCo3RmMxpjT1cg51FnG2&quot; style=&quot;font-size: 14px;&quot;&gt;&lt;div class=&quot;old-record-id-FYGXdTRgKoE5KMxUbOHcS2Pdn7e&quot; style=&quot;font-size: 14px;&quot;&gt;&lt;div data-docx-has-block-data=&quot;false&quot; data-page-id=&quot;U75hdgrPCo3RmMxpjT1cg51FnG2&quot; style=&quot;font-size: 14px;&quot;&gt;&lt;div class=&quot;old-record-id-RFyWdTkMNoQjnLxzmz2cja4onub&quot; style=&quot;font-size: 14px;&quot;&gt;&lt;div data-docx-has-block-data=&quot;false&quot; data-page-id=&quot;U75hdgrPCo3RmMxpjT1cg51FnG2&quot; style=&quot;font-size: 14px;&quot;&gt;&lt;div class=&quot;old-record-id-EQ1PdNnlBoj7y9x2NpdcNYQenFT&quot; style=&quot;font-size: 14px;&quot;&gt;&lt;strong style=&quot;font-size: 14px;&quot;&gt;临床用药案例&lt;/strong&gt;&lt;/div&gt;&lt;/div&gt;&lt;/div&gt;&lt;/div&gt;&lt;/div&gt;&lt;/div&gt;" style="whiteSpace=wrap;html=1;fontStyle=1;fontSize=14;container=0;" parent="-22HzztCrq7GmQZzHRGp-73" vertex="1">
          <mxGeometry x="200" y="197" width="100" height="40" as="geometry" />
        </mxCell>
        <mxCell id="3K_oNV2d-IeETJ5J5liT-36" value="&lt;div data-docx-has-block-data=&quot;false&quot; data-page-id=&quot;U75hdgrPCo3RmMxpjT1cg51FnG2&quot; style=&quot;font-size: 14px;&quot;&gt;&lt;div class=&quot;old-record-id-CLDddbItjoVo6kxUgAkcXU8XnOe&quot; style=&quot;font-size: 14px;&quot;&gt;&lt;div data-docx-has-block-data=&quot;false&quot; data-page-id=&quot;U75hdgrPCo3RmMxpjT1cg51FnG2&quot; style=&quot;font-size: 14px;&quot;&gt;&lt;div class=&quot;old-record-id-CsDQdUX7konVqsxgs9XcECbYnS8&quot; style=&quot;font-size: 14px;&quot;&gt;&lt;div data-docx-has-block-data=&quot;false&quot; data-page-id=&quot;U75hdgrPCo3RmMxpjT1cg51FnG2&quot; style=&quot;font-size: 14px;&quot;&gt;&lt;div class=&quot;old-record-id-L3pVdVWfgoNHYkxE5G3cOKlGn3b&quot; style=&quot;font-size: 14px;&quot;&gt;&lt;strong style=&quot;font-size: 14px;&quot;&gt;用药教育&lt;/strong&gt;&lt;/div&gt;&lt;/div&gt;&lt;/div&gt;&lt;/div&gt;&lt;/div&gt;&lt;/div&gt;" style="whiteSpace=wrap;html=1;fontStyle=1;fontSize=14;container=0;" parent="-22HzztCrq7GmQZzHRGp-73" vertex="1">
          <mxGeometry x="840" y="157" width="100" height="40" as="geometry" />
        </mxCell>
        <mxCell id="3K_oNV2d-IeETJ5J5liT-37" value="&lt;div data-docx-has-block-data=&quot;false&quot; data-page-id=&quot;U75hdgrPCo3RmMxpjT1cg51FnG2&quot; style=&quot;font-size: 14px;&quot;&gt;&lt;div class=&quot;old-record-id-KXI4dxLmWoabesxjAwXcH6y2nfO&quot; style=&quot;font-size: 14px;&quot;&gt;&lt;div data-docx-has-block-data=&quot;false&quot; data-page-id=&quot;U75hdgrPCo3RmMxpjT1cg51FnG2&quot; style=&quot;font-size: 14px;&quot;&gt;&lt;div class=&quot;old-record-id-Vr8yd2VCjo98Fox9OnscHbffnFf&quot; style=&quot;font-size: 14px;&quot;&gt;&lt;strong style=&quot;font-size: 14px;&quot;&gt;妊娠哺乳用药&lt;/strong&gt;&lt;/div&gt;&lt;/div&gt;&lt;/div&gt;&lt;/div&gt;" style="whiteSpace=wrap;html=1;fontStyle=1;fontSize=14;container=0;" parent="-22HzztCrq7GmQZzHRGp-73" vertex="1">
          <mxGeometry x="360" y="168" width="100" height="40" as="geometry" />
        </mxCell>
        <mxCell id="3K_oNV2d-IeETJ5J5liT-38" value="&lt;div data-docx-has-block-data=&quot;false&quot; data-page-id=&quot;U75hdgrPCo3RmMxpjT1cg51FnG2&quot; style=&quot;font-size: 14px;&quot;&gt;&lt;div class=&quot;old-record-id-FYGXdTRgKoE5KMxUbOHcS2Pdn7e&quot; style=&quot;font-size: 14px;&quot;&gt;&lt;div data-docx-has-block-data=&quot;false&quot; data-page-id=&quot;U75hdgrPCo3RmMxpjT1cg51FnG2&quot; style=&quot;font-size: 14px;&quot;&gt;&lt;div class=&quot;old-record-id-KKSwd7td4oOasQx6DPScpFrDnDc&quot; style=&quot;font-size: 14px;&quot;&gt;&lt;div data-docx-has-block-data=&quot;false&quot; data-page-id=&quot;U75hdgrPCo3RmMxpjT1cg51FnG2&quot; style=&quot;font-size: 14px;&quot;&gt;&lt;div class=&quot;old-record-id-ThVsdTOWCo88p9xujwbcLAaDnDh&quot; style=&quot;font-size: 14px;&quot;&gt;&lt;strong style=&quot;font-size: 14px;&quot;&gt;儿童用药&lt;/strong&gt;&lt;/div&gt;&lt;/div&gt;&lt;/div&gt;&lt;/div&gt;&lt;/div&gt;&lt;/div&gt;" style="whiteSpace=wrap;html=1;fontStyle=1;fontSize=14;container=0;" parent="-22HzztCrq7GmQZzHRGp-73" vertex="1">
          <mxGeometry x="360" y="218" width="100" height="40" as="geometry" />
        </mxCell>
        <mxCell id="3K_oNV2d-IeETJ5J5liT-39" value="&lt;div data-docx-has-block-data=&quot;false&quot; data-page-id=&quot;U75hdgrPCo3RmMxpjT1cg51FnG2&quot; style=&quot;font-size: 14px;&quot;&gt;&lt;div class=&quot;old-record-id-CLDddbItjoVo6kxUgAkcXU8XnOe&quot; style=&quot;font-size: 14px;&quot;&gt;&lt;div data-docx-has-block-data=&quot;false&quot; data-page-id=&quot;U75hdgrPCo3RmMxpjT1cg51FnG2&quot; style=&quot;font-size: 14px;&quot;&gt;&lt;div class=&quot;old-record-id-CizYdL75qoCFmixBCsxcFThYnwb&quot; style=&quot;font-size: 14px;&quot;&gt;&lt;div data-docx-has-block-data=&quot;false&quot; data-page-id=&quot;U75hdgrPCo3RmMxpjT1cg51FnG2&quot; style=&quot;font-size: 14px;&quot;&gt;&lt;div class=&quot;old-record-id-Jqw1dTL3So8uCDxQ7eYcoqZXnee&quot; style=&quot;font-size: 14px;&quot;&gt;&lt;strong style=&quot;font-size: 14px;&quot;&gt;临床路径&lt;/strong&gt;&lt;/div&gt;&lt;/div&gt;&lt;/div&gt;&lt;/div&gt;&lt;/div&gt;&lt;/div&gt;" style="whiteSpace=wrap;html=1;fontStyle=1;fontSize=14;container=0;" parent="-22HzztCrq7GmQZzHRGp-73" vertex="1">
          <mxGeometry x="200" y="150" width="100" height="40" as="geometry" />
        </mxCell>
        <mxCell id="3K_oNV2d-IeETJ5J5liT-40" value="&lt;div data-docx-has-block-data=&quot;false&quot; data-page-id=&quot;U75hdgrPCo3RmMxpjT1cg51FnG2&quot; style=&quot;font-size: 14px;&quot;&gt;&lt;div class=&quot;old-record-id-RJVHdkrtOoJGQ8xDvC4cPjFMnng&quot; style=&quot;font-size: 14px;&quot;&gt;&lt;div data-docx-has-block-data=&quot;false&quot; data-page-id=&quot;U75hdgrPCo3RmMxpjT1cg51FnG2&quot; style=&quot;font-size: 14px;&quot;&gt;&lt;div class=&quot;old-record-id-BzTIdsnTWohq5fxiD9QcLEJ9nZg&quot; style=&quot;font-size: 14px;&quot;&gt;&lt;div data-docx-has-block-data=&quot;false&quot; data-page-id=&quot;U75hdgrPCo3RmMxpjT1cg51FnG2&quot; style=&quot;font-size: 14px;&quot;&gt;&lt;div class=&quot;old-record-id-FvERd9oAhod6VnxGUknceArOngf&quot; style=&quot;font-size: 14px;&quot;&gt;&lt;strong style=&quot;font-size: 14px;&quot;&gt;不良反应库&lt;/strong&gt;&lt;/div&gt;&lt;/div&gt;&lt;/div&gt;&lt;/div&gt;&lt;/div&gt;&lt;/div&gt;" style="whiteSpace=wrap;html=1;fontStyle=1;fontSize=14;container=0;" parent="-22HzztCrq7GmQZzHRGp-73" vertex="1">
          <mxGeometry x="520" y="110" width="100" height="40" as="geometry" />
        </mxCell>
        <mxCell id="3K_oNV2d-IeETJ5J5liT-41" value="&lt;div data-docx-has-block-data=&quot;false&quot; data-page-id=&quot;U75hdgrPCo3RmMxpjT1cg51FnG2&quot; style=&quot;font-size: 14px;&quot;&gt;&lt;div class=&quot;old-record-id-FYGXdTRgKoE5KMxUbOHcS2Pdn7e&quot; style=&quot;font-size: 14px;&quot;&gt;&lt;div data-docx-has-block-data=&quot;false&quot; data-page-id=&quot;U75hdgrPCo3RmMxpjT1cg51FnG2&quot; style=&quot;font-size: 14px;&quot;&gt;&lt;div class=&quot;old-record-id-RFyWdTkMNoQjnLxzmz2cja4onub&quot; style=&quot;font-size: 14px;&quot;&gt;&lt;div data-docx-has-block-data=&quot;false&quot; data-page-id=&quot;U75hdgrPCo3RmMxpjT1cg51FnG2&quot; style=&quot;font-size: 14px;&quot;&gt;&lt;div class=&quot;old-record-id-EQ1PdNnlBoj7y9x2NpdcNYQenFT&quot; style=&quot;font-size: 14px;&quot;&gt;&lt;div data-docx-has-block-data=&quot;false&quot; data-page-id=&quot;U75hdgrPCo3RmMxpjT1cg51FnG2&quot; style=&quot;font-size: 14px;&quot;&gt;&lt;div class=&quot;old-record-id-MQgQdzc3RoXue9xhy1pcUUHrnmc&quot; style=&quot;font-size: 14px;&quot;&gt;&lt;strong style=&quot;font-size: 14px;&quot;&gt;国家基本药物&lt;/strong&gt;&lt;/div&gt;&lt;/div&gt;&lt;/div&gt;&lt;/div&gt;&lt;/div&gt;&lt;/div&gt;&lt;/div&gt;&lt;/div&gt;" style="whiteSpace=wrap;html=1;fontStyle=1;fontSize=14;container=0;" parent="-22HzztCrq7GmQZzHRGp-73" vertex="1">
          <mxGeometry x="30" y="358" width="100" height="40" as="geometry" />
        </mxCell>
        <mxCell id="3K_oNV2d-IeETJ5J5liT-42" value="&lt;div data-docx-has-block-data=&quot;false&quot; data-page-id=&quot;U75hdgrPCo3RmMxpjT1cg51FnG2&quot; style=&quot;font-size: 14px;&quot;&gt;&lt;div class=&quot;old-record-id-CLDddbItjoVo6kxUgAkcXU8XnOe&quot; style=&quot;font-size: 14px;&quot;&gt;&lt;div data-docx-has-block-data=&quot;false&quot; data-page-id=&quot;U75hdgrPCo3RmMxpjT1cg51FnG2&quot; style=&quot;font-size: 14px;&quot;&gt;&lt;div class=&quot;old-record-id-CsDQdUX7konVqsxgs9XcECbYnS8&quot; style=&quot;font-size: 14px;&quot;&gt;&lt;div data-docx-has-block-data=&quot;false&quot; data-page-id=&quot;U75hdgrPCo3RmMxpjT1cg51FnG2&quot; style=&quot;font-size: 14px;&quot;&gt;&lt;div class=&quot;old-record-id-L3pVdVWfgoNHYkxE5G3cOKlGn3b&quot; style=&quot;font-size: 14px;&quot;&gt;&lt;div data-docx-has-block-data=&quot;false&quot; data-page-id=&quot;U75hdgrPCo3RmMxpjT1cg51FnG2&quot; style=&quot;font-size: 14px;&quot;&gt;&lt;div class=&quot;old-record-id-RfWPd7aTcoSYTlxF6DScY4RhnGd&quot; style=&quot;font-size: 14px;&quot;&gt;&lt;strong style=&quot;font-size: 14px;&quot;&gt;超说明书用药&lt;/strong&gt;&lt;/div&gt;&lt;/div&gt;&lt;/div&gt;&lt;/div&gt;&lt;/div&gt;&lt;/div&gt;&lt;/div&gt;&lt;/div&gt;" style="whiteSpace=wrap;html=1;fontStyle=1;fontSize=14;container=0;" parent="-22HzztCrq7GmQZzHRGp-73" vertex="1">
          <mxGeometry x="680" y="110" width="100" height="40" as="geometry" />
        </mxCell>
        <mxCell id="3K_oNV2d-IeETJ5J5liT-43" value="&lt;div data-docx-has-block-data=&quot;false&quot; data-page-id=&quot;U75hdgrPCo3RmMxpjT1cg51FnG2&quot; style=&quot;font-size: 14px;&quot;&gt;&lt;div class=&quot;old-record-id-KXI4dxLmWoabesxjAwXcH6y2nfO&quot; style=&quot;font-size: 14px;&quot;&gt;&lt;div data-docx-has-block-data=&quot;false&quot; data-page-id=&quot;U75hdgrPCo3RmMxpjT1cg51FnG2&quot; style=&quot;font-size: 14px;&quot;&gt;&lt;div class=&quot;old-record-id-Vr8yd2VCjo98Fox9OnscHbffnFf&quot; style=&quot;font-size: 14px;&quot;&gt;&lt;div data-docx-has-block-data=&quot;false&quot; data-page-id=&quot;U75hdgrPCo3RmMxpjT1cg51FnG2&quot; style=&quot;font-size: 14px;&quot;&gt;&lt;div class=&quot;old-record-id-IcgGdFW1co3PsGxoAPUcII9Tnwh&quot; style=&quot;font-size: 14px;&quot;&gt;&lt;strong style=&quot;font-size: 14px;&quot;&gt;ATC及&lt;/strong&gt;&lt;strong style=&quot;font-size: 14px;&quot;&gt;DDD&lt;/strong&gt;&lt;strong style=&quot;font-size: 14px;&quot;&gt;使用&lt;/strong&gt;&lt;/div&gt;&lt;/div&gt;&lt;/div&gt;&lt;/div&gt;&lt;/div&gt;&lt;/div&gt;" style="whiteSpace=wrap;html=1;fontStyle=1;fontSize=14;container=0;" parent="-22HzztCrq7GmQZzHRGp-73" vertex="1">
          <mxGeometry x="840" y="258" width="100" height="40" as="geometry" />
        </mxCell>
        <mxCell id="3K_oNV2d-IeETJ5J5liT-44" value="&lt;div data-docx-has-block-data=&quot;false&quot; data-page-id=&quot;U75hdgrPCo3RmMxpjT1cg51FnG2&quot; style=&quot;font-size: 14px;&quot;&gt;&lt;div class=&quot;old-record-id-FYGXdTRgKoE5KMxUbOHcS2Pdn7e&quot; style=&quot;font-size: 14px;&quot;&gt;&lt;div data-docx-has-block-data=&quot;false&quot; data-page-id=&quot;U75hdgrPCo3RmMxpjT1cg51FnG2&quot; style=&quot;font-size: 14px;&quot;&gt;&lt;div class=&quot;old-record-id-KKSwd7td4oOasQx6DPScpFrDnDc&quot; style=&quot;font-size: 14px;&quot;&gt;&lt;div data-docx-has-block-data=&quot;false&quot; data-page-id=&quot;U75hdgrPCo3RmMxpjT1cg51FnG2&quot; style=&quot;font-size: 14px;&quot;&gt;&lt;div class=&quot;old-record-id-ThVsdTOWCo88p9xujwbcLAaDnDh&quot; style=&quot;font-size: 14px;&quot;&gt;&lt;div data-docx-has-block-data=&quot;false&quot; data-page-id=&quot;U75hdgrPCo3RmMxpjT1cg51FnG2&quot; style=&quot;font-size: 14px;&quot;&gt;&lt;div class=&quot;old-record-id-XLVdde7uMorNxIxMQQQcuS5Pnof&quot; style=&quot;font-size: 14px;&quot;&gt;&lt;strong style=&quot;font-size: 14px;&quot;&gt;检验项目&lt;/strong&gt;&lt;/div&gt;&lt;/div&gt;&lt;/div&gt;&lt;/div&gt;&lt;/div&gt;&lt;/div&gt;&lt;/div&gt;&lt;/div&gt;" style="whiteSpace=wrap;html=1;fontStyle=1;fontSize=14;container=0;" parent="-22HzztCrq7GmQZzHRGp-73" vertex="1">
          <mxGeometry x="680" y="208" width="100" height="40" as="geometry" />
        </mxCell>
      </root>
    </mxGraphModel>
  </diagram>
</mxfile>
